<svg xmlns="http://www.w3.org/2000/svg" viewBox="0 0 100 120" width="32" height="38">
  <defs>
    <linearGradient id="shield-grad" x1="0" y1="0" x2="0" y2="1">
      <stop offset="0%" stop-color="#e8edff"/>
      <stop offset="100%" stop-color="#d0dbff"/>
    </linearGradient>
  </defs>
  <!-- Shield -->
  <path d="M50 5 L90 20 L90 55 Q90 85 50 115 Q10 85 10 55 L10 20 Z"
        fill="url(#shield-grad)" stroke="#5b8dff" stroke-width="2"/>
  <!-- Chess knight (Material Design, solid) -->
  <path d="M200-80v-160q0-23 12-41.5t32-29.5l196-99v-70l-139 69q-12 6-25 9t-26 3q-31 0-58.5-16T149-461q-14-27-12-57.5t19-56.5l124-185-80-120h240q133 0 226.5 93T760-560v480H200Z"
        fill="#2f6bff"
        transform="translate(50,54) scale(0.081) translate(-480,480)"/>
</svg>
